nColumns=19
nRows=25
DataType=double
version=3
OpenSimVersion=4.1
endheader
time	ground_force_calcn_r_vx	ground_force_calcn_r_vy	ground_force_calcn_r_vz	ground_force_calcn_r_px	ground_force_calcn_r_py	ground_force_calcn_r_pz	ground_force_calcn_r_mx	ground_force_calcn_r_my	ground_force_calcn_r_mz	ground_force_calcn_l_vx	ground_force_calcn_l_vy	ground_force_calcn_l_vz	ground_force_calcn_l_px	ground_force_calcn_l_py	ground_force_calcn_l_pz	ground_force_calcn_l_mx	ground_force_calcn_l_my	ground_force_calcn_l_mz
0	-3.70125	295.16	-58.2735	-0.206738	0	-0.434252	0.0183989	-1.46724	0.289678	0.881453	319.367	58.7533	-0.220566	0	-0.988277	0.00371397	1.34564	0.247555
0.01	-3.76278	294.924	-58.2946	-0.206475	0	-0.434283	0.0189198	-1.48292	0.293114	0.839697	319.645	58.8228	-0.220281	0	-0.988219	0.00347259	1.3219	0.243264
0.02	-3.84631	294.646	-58.3069	-0.206162	0	-0.434305	0.0195423	-1.49704	0.296245	0.783479	319.964	58.9117	-0.219966	0	-0.988186	0.00317964	1.29853	0.239084
0.03	-3.95301	294.33	-58.3092	-0.205802	0	-0.434319	0.0202654	-1.50891	0.298927	0.711412	320.32	59.0205	-0.219627	0	-0.988182	0.0028344	1.27622	0.235149
0.04	-4.08257	293.98	-58.3017	-0.205401	0	-0.434323	0.0210832	-1.51817	0.301081	0.62264	320.706	59.1484	-0.219266	0	-0.988211	0.00243735	1.25542	0.231539
0.05	-4.23316	293.602	-58.2857	-0.204964	0	-0.434317	0.0219842	-1.52477	0.302697	0.516765	321.117	59.2927	-0.218886	0	-0.988274	0.00198959	1.23633	0.228282
0.06	-4.40142	293.207	-58.2636	-0.204503	0	-0.434301	0.0229507	-1.5289	0.30381	0.393423	321.543	59.4498	-0.218489	0	-0.98837	0.00149144	1.21894	0.22537
0.07	-4.58315	292.806	-58.2385	-0.204027	0	-0.434278	0.023961	-1.53081	0.304475	0.252585	321.975	59.6149	-0.218076	0	-0.988496	0.000943835	1.20313	0.222764
0.08	-4.77395	292.41	-58.2138	-0.203547	0	-0.434247	0.0249919	-1.53078	0.304753	0.0945868	322.406	59.783	-0.217648	0	-0.988649	0.000348735	1.18869	0.220416
0.09	-4.96945	292.032	-58.1931	-0.203073	0	-0.434214	0.026022	-1.52919	0.304721	-0.07977	322.825	59.9488	-0.217209	0	-0.988826	-0.000290451	1.17544	0.21828
0.1	-5.16568	291.682	-58.1793	-0.202615	0	-0.434181	0.0270331	-1.52643	0.304464	-0.268659	323.225	60.1075	-0.21676	0	-0.989023	-0.000966831	1.1632	0.216311
0.11	-5.35922	291.37	-58.1743	-0.20218	0	-0.43415	0.0280088	-1.52278	0.304036	-0.469187	323.606	60.2561	-0.216309	0	-0.989232	-0.00167001	1.15183	0.214474
0.12	-5.54721	291.102	-58.1789	-0.201774	0	-0.434125	0.0289329	-1.51832	0.303447	-0.67744	323.973	60.3929	-0.21586	0	-0.989452	-0.0023864	1.14125	0.212745
0.13	-5.72791	290.875	-58.1923	-0.201401	0	-0.434107	0.0297929	-1.51295	0.302679	-0.889061	324.34	60.5185	-0.215421	0	-0.989674	-0.00310128	1.13138	0.211105
0.14	-5.90114	290.681	-58.212	-0.201062	0	-0.434097	0.0305818	-1.50641	0.301675	-1.09981	324.728	60.6351	-0.215002	0	-0.989897	-0.00380072	1.1222	0.209544
0.15	-6.06786	290.497	-58.2325	-0.200754	0	-0.434094	0.0312969	-1.49833	0.300353	-1.30587	325.166	60.7477	-0.21461	0	-0.990116	-0.00447255	1.11368	0.208058
0.16	-6.22989	290.285	-58.2447	-0.200475	0	-0.434099	0.03194	-1.48826	0.298615	-1.50377	325.692	60.864	-0.214251	0	-0.990328	-0.00510528	1.10572	0.206633
0.17	-6.38973	289.989	-58.2345	-0.200219	0	-0.434113	0.0325164	-1.47571	0.296347	-1.68996	326.35	60.9951	-0.213933	0	-0.990529	-0.00568647	1.09812	0.205239
0.18	-6.54984	289.534	-58.183	-0.199978	0	-0.434137	0.0330338	-1.46025	0.293443	-1.86118	327.198	61.1552	-0.21366	0	-0.990715	-0.00620379	1.09063	0.203846
0.19	-6.7125	288.827	-58.0654	-0.199743	0	-0.434173	0.033503	-1.44157	0.289812	-2.01516	328.304	61.3622	-0.213439	0	-0.990886	-0.0066476	1.08301	0.202422
0.2	-6.8799	287.757	-57.8516	-0.199507	0	-0.434222	0.0339372	-1.41945	0.285371	-2.15161	329.743	61.6377	-0.213275	0	-0.991038	-0.00701392	1.07491	0.200929
0.21	-7.05426	286.198	-57.5063	-0.199258	0	-0.434286	0.0343519	-1.39369	0.280037	-2.27277	331.6	62.006	-0.213174	0	-0.991168	-0.00730642	1.06602	0.199335
0.22	-7.23793	284.009	-56.9894	-0.198985	0	-0.43437	0.0347664	-1.3642	0.273741	-2.38321	333.962	62.494	-0.213142	0	-0.991276	-0.00753577	1.056	0.197607
0.23	-7.43345	281.043	-56.2581	-0.198676	0	-0.434479	0.0352056	-1.33105	0.266444	-2.48961	336.913	63.1306	-0.213187	0	-0.991361	-0.0077187	1.04455	0.195728
0.24	-7.64306	277.143	-55.2684	-0.198323	0	-0.434619	0.0356972	-1.29441	0.258133	-2.60067	340.527	63.9466	-0.213312	0	-0.991425	-0.00787694	1.03139	0.193682
